<svg xmlns="http://www.w3.org/2000/svg" width="356.389" height="132.462" viewBox="0 0 356.389 132.462">
  <g id="Group_94" data-name="Group 94" transform="translate(-29.658)">
    <g id="Group_1" data-name="Group 1" transform="translate(29.658)">
      <path id="Path_29" data-name="Path 29" d="M372.38,300.3l-49.013,20.3,13.246,5.487,49.013-20.3-11.363-27.434,11.364-27.433L362.166,241.2l5.486,13.246,4.729,1.959-9.091,21.947Z" transform="translate(-253.166 -212.121)" fill="#d8d8d8"/>
      <path id="Path_30" data-name="Path 30" d="M297.2,194.146l20.3,49.013,5.487-13.246-20.3-49.013L275.25,192.263,247.816,180.9,238.1,204.36l13.246-5.486,1.959-4.729,21.946,9.091Z" transform="translate(-209.017 -180.898)" fill="#d8d8d8"/>
      <path id="Path_31" data-name="Path 31" d="M191.042,245.038l49.013-20.3-13.246-5.487-49.013,20.3,11.362,27.434-11.364,27.433,23.461,9.719-5.486-13.246-4.729-1.959,9.091-21.946Z" transform="translate(-177.795 -200.756)" fill="#d8d8d8"/>
      <path id="Path_32" data-name="Path 32" d="M241.935,375.484l-20.3-49.013-5.487,13.246,20.3,49.013,27.434-11.362,27.433,11.364,9.719-23.461-13.246,5.486-1.959,4.729-21.946-9.091Z" transform="translate(-197.652 -256.269)" fill="#d8d8d8"/>
      <path id="Path_33" data-name="Path 33" d="M344.411,260.576q.991-.04,1.988-.027a50.663,50.663,0,0,1-6.356,47.97,44.362,44.362,0,0,1-10.7-1.144A47.589,47.589,0,0,0,344.411,260.576Z" transform="translate(-256.262 -222.136)" fill="#d8d8d8"/>
      <path id="Path_34" data-name="Path 34" d="M292.885,378.063A50.943,50.943,0,0,1,261.5,388.8l-4.339-10.476a47.291,47.291,0,0,0,20.6-3.011A53.787,53.787,0,0,0,292.885,378.063Z" transform="translate(-218.889 -281.556)" fill="#d8d8d8"/>
      <path id="Path_35" data-name="Path 35" d="M321.284,347.514q.04.992.028,1.988a50.664,50.664,0,0,1-47.97-6.356,44.4,44.4,0,0,1,1.144-10.7A47.589,47.589,0,0,0,321.284,347.514Z" transform="translate(-227.262 -259.365)" fill="#d8d8d8"/>
      <path id="Path_36" data-name="Path 36" d="M240.827,295.988a50.939,50.939,0,0,1-10.734-31.382l10.476-4.339a47.289,47.289,0,0,0,3.012,20.6A53.792,53.792,0,0,0,240.827,295.988Z" transform="translate(-204.872 -221.992)" fill="#d8d8d8"/>
      <path id="Path_37" data-name="Path 37" d="M257.473,267.04q-.04-.992-.028-1.988a50.663,50.663,0,0,1,47.97,6.356,44.393,44.393,0,0,1-1.144,10.7A47.588,47.588,0,0,0,257.473,267.04Z" transform="translate(-219.033 -222.727)" fill="#d8d8d8"/>
      <path id="Path_38" data-name="Path 38" d="M374.959,302.134a50.936,50.936,0,0,1,10.735,31.383l-10.476,4.339a47.286,47.286,0,0,0-3.012-20.6A53.785,53.785,0,0,0,374.959,302.134Z" transform="translate(-278.452 -243.669)" fill="#d8d8d8"/>
      <path id="Path_39" data-name="Path 39" d="M263.936,324.387q-.992.04-1.988.028a50.664,50.664,0,0,1,6.356-47.97,44.377,44.377,0,0,1,10.7,1.144A47.59,47.59,0,0,0,263.936,324.387Z" transform="translate(-219.623 -230.365)" fill="#d8d8d8"/>
      <path id="Path_40" data-name="Path 40" d="M299.031,243.93A50.935,50.935,0,0,1,330.413,233.2l4.339,10.476a47.294,47.294,0,0,0-20.6,3.012A53.777,53.777,0,0,0,299.031,243.93Z" transform="translate(-240.566 -207.975)" fill="#d8d8d8"/>
    </g>
    <g id="Group_3" data-name="Group 3" transform="translate(177.175 23.039)">
      <path id="Path_41" data-name="Path 41" d="M550.219,238.675c-.113-1.07-.282-1.521-.676-1.521s-.62.395-.846.9l-16.562,35.379L514.9,238c-.281-.62-.507-.845-.845-.845s-.563.395-.62,1.014L509.376,274.9c-.226,2.141-.395,4.338-2.254,4.676a7.242,7.242,0,0,1-1.69.169c-.281,0-.563.113-.563.282,0,.394.394.507.957.507,1.521,0,4.225-.169,4.732-.169.45,0,3.154.169,5.239.169.676,0,1.014-.113,1.014-.507,0-.169-.225-.282-.451-.282a10.38,10.38,0,0,1-2.141-.282,1.8,1.8,0,0,1-1.465-1.747c0-.957,0-1.971.057-2.873l2.253-26.14h.225c.62,1.521,6.929,15.041,7.437,16.056.282.563,5.127,10.309,6.591,13.07,1.07,2.028,1.352,2.591,1.746,2.591.507,0,.676-.507,1.859-2.986l13.8-29.295h.169l2.7,29.069c.113,1.014.056,1.972-.225,2.028s-.395.169-.395.395c0,.282.281.451,1.577.564,2.084.169,8.169.338,9.408.338.676,0,1.183-.169,1.183-.507,0-.225-.169-.282-.451-.282a12.215,12.215,0,0,1-3.662-.507c-2.422-.789-2.817-3.943-3.042-5.972Z" transform="translate(-504.869 -237.154)" fill="#d8d8d8" fill-rule="evenodd"/>
      <path id="Path_42" data-name="Path 42" d="M635.8,264.605c0,5.408,0,9.859-.282,12.225-.225,1.633-.507,2.873-1.634,3.1a8.7,8.7,0,0,1-1.69.225c-.338,0-.45.169-.45.338,0,.338.282.451.9.451,1.69,0,5.239-.169,5.521-.169,1.633,0,5.408.338,13.915.338,2.2,0,2.648,0,3.042-1.465.281-1.183.732-5.014.732-5.465,0-.394,0-.845-.338-.845-.282,0-.395.225-.507.845-.395,2.31-1.071,3.437-2.535,4.057a16.168,16.168,0,0,1-5.409.619c-5.521,0-6.366-.732-6.535-4.62-.057-1.183,0-7.718,0-9.633v-4.958a.356.356,0,0,1,.395-.395c.957,0,6.535.113,8.056.282,2.2.225,2.7,1.183,2.93,1.972a5.758,5.758,0,0,1,.225,1.859c0,.282.113.507.395.507.394,0,.394-.62.394-1.071,0-.394.112-2.479.225-3.605.169-1.859.451-2.817.451-3.155s-.113-.451-.282-.451c-.225,0-.451.282-.845.733-.507.563-1.3.676-2.648.789-1.3.113-8.225.113-8.957.113-.282,0-.338-.169-.338-.563V241.113c0-.395.112-.563.338-.563.619,0,6.76.056,7.718.169,3.042.338,3.605,1.014,4,1.916a6.06,6.06,0,0,1,.338,2.028c0,.451.112.732.45.732.226,0,.338-.338.395-.62.113-.676.225-3.155.281-3.719.169-1.577.451-2.253.451-2.648,0-.282-.057-.507-.226-.507-.281,0-.507.225-.789.281a15,15,0,0,1-2.422.282c-1.3.056-12.507.056-12.9.056-.282,0-3.831-.169-6.366-.169-.62,0-.9.113-.9.451,0,.225.225.338.451.338a10.52,10.52,0,0,1,1.915.169c1.859.394,2.31,1.3,2.422,3.211.113,1.8.113,3.38.113,12.168Z" transform="translate(-573.95 -237.564)" fill="#d8d8d8" fill-rule="evenodd"/>
      <path id="Path_43" data-name="Path 43" d="M699.371,265.152c0,5.408,0,9.859-.281,12.225-.226,1.633-.507,2.873-1.634,3.1a8.717,8.717,0,0,1-1.691.225c-.338,0-.45.169-.45.338,0,.338.282.451.9.451,1.691,0,5.239-.169,5.3-.169.282,0,3.831.169,6.93.169.619,0,.9-.169.9-.451,0-.169-.113-.338-.451-.338a24.61,24.61,0,0,1-2.535-.225c-1.69-.226-2.028-1.465-2.2-3.1-.282-2.366-.282-6.817-.282-12.225V263.8c0-.282.113-.451.395-.451l6.929.113a.908.908,0,0,1,.733.338c1.127,1.465,3.775,5.239,6.141,8.338,3.211,4.225,5.183,6.986,7.605,8.281,1.465.789,2.873,1.07,6.028,1.07h4c1.014,0,1.352-.113,1.352-.451,0-.169-.225-.338-.506-.338a13.508,13.508,0,0,1-2.2-.169c-1.409-.225-3.831-.845-6.874-4.056-3.267-3.493-7.1-8.507-11.718-14.422,5.07-4.676,6.816-8.845,6.816-13.013a9.86,9.86,0,0,0-3.887-7.662c-2.986-2.141-6.76-2.479-10.309-2.479-1.746,0-6.028.169-6.647.169-.282,0-3.831-.169-6.366-.169-.619,0-.9.113-.9.451,0,.225.225.338.451.338a10.5,10.5,0,0,1,1.915.169c1.859.394,2.309,1.3,2.423,3.211.112,1.8.112,3.38.112,12.168Zm4.507-23.436a.679.679,0,0,1,.451-.676,17,17,0,0,1,3.774-.338c6.028,0,9.746,4.225,9.746,11.267,0,4.282-1.464,7.324-3.436,8.676a7.293,7.293,0,0,1-4.225,1.071c-2.479,0-5.071-.395-5.915-.9a.736.736,0,0,1-.395-.676Z" transform="translate(-608.792 -238.11)" fill="#d8d8d8" fill-rule="evenodd"/>
      <path id="Path_44" data-name="Path 44" d="M769.9,273.883l12.623-34.532c.676-1.859.9-2.2,1.239-2.2s.563.282,1.239,2.028c.845,2.141,9.69,25.407,13.126,33.97,2.028,5.014,3.662,5.915,4.845,6.253a7.268,7.268,0,0,0,2.253.338c.338,0,.564.057.564.338,0,.338-.507.451-1.127.451-.845,0-4.958,0-8.845-.113-1.07-.056-1.69-.056-1.69-.394,0-.225.169-.338.394-.395.338-.112.676-.62.338-1.521l-5.239-13.859a.493.493,0,0,0-.507-.338H777.006a.594.594,0,0,0-.564.451l-3.38,9.971a15.53,15.53,0,0,0-.554,1.9,15.147,15.147,0,0,1-2.291-2.012Zm7.722-12h10.76c.281,0,.281-.169.226-.394l-5.352-15.211q-.422-1.267-.845,0l-4.958,15.211C777.344,261.773,777.456,261.885,777.626,261.885Z" transform="translate(-650.139 -237.154)" fill="#d8d8d8" fill-rule="evenodd"/>
      <path id="Path_45" data-name="Path 45" d="M884.21,238.675c-.113-1.07-.282-1.521-.676-1.521s-.62.395-.845.9l-16.563,35.379L848.888,238c-.282-.62-.507-.845-.845-.845s-.563.395-.62,1.014L843.367,274.9c-.225,2.141-.394,4.338-2.253,4.676a7.246,7.246,0,0,1-1.69.169c-.281,0-.563.113-.563.282,0,.394.394.507.957.507,1.522,0,4.226-.169,4.732-.169.451,0,3.155.169,5.239.169.676,0,1.015-.113,1.015-.507,0-.169-.226-.282-.451-.282a10.368,10.368,0,0,1-2.14-.282,1.8,1.8,0,0,1-1.465-1.747c0-.957,0-1.971.057-2.873l2.253-26.14h.225c.62,1.521,6.93,15.041,7.437,16.056.281.563,5.126,10.309,6.591,13.07,1.07,2.028,1.352,2.591,1.746,2.591.507,0,.676-.507,1.859-2.986l13.8-29.295h.169l2.7,29.069c.113,1.014.057,1.972-.225,2.028s-.395.169-.395.395c0,.282.282.451,1.577.564,2.084.169,8.169.338,9.408.338.676,0,1.183-.169,1.183-.507,0-.225-.169-.282-.45-.282a12.214,12.214,0,0,1-3.662-.507c-2.422-.789-2.817-3.943-3.042-5.972Z" transform="translate(-687.934 -237.154)" fill="#d8d8d8" fill-rule="evenodd"/>
      <g id="Group_2" data-name="Group 2" transform="translate(0.179 48.029)">
        <path id="Path_46" data-name="Path 46" d="M508.313,371.853c0,3.363,0,6.13-.175,7.6-.14,1.016-.315,1.786-1.016,1.927a5.4,5.4,0,0,1-1.051.14c-.21,0-.28.105-.28.211,0,.21.175.28.56.28,1.051,0,3.258-.105,3.433-.105.28,0,3.853.21,4.658.21,5.989,0,8.931-3.888,8.931-7.635,0-4.1-3.467-6.585-6.059-7.391,1.646-1.716,3.292-3.432,3.292-6.3,0-1.751-1.261-5.254-7.005-5.254-1.611,0-2.978.105-3.818.105-.175,0-2.382-.105-3.958-.105-.385,0-.561.071-.561.281,0,.14.14.21.28.21a6.559,6.559,0,0,1,1.191.1c1.156.245,1.436.806,1.506,2,.07,1.121.07,2.1.07,7.566Zm2.8-14.781c0-.21.1-.316.42-.386a7.833,7.833,0,0,1,1.681-.175c3.432,0,4.728,3.117,4.728,6.024a5.412,5.412,0,0,1-1.261,3.537c-.735.84-1.226.91-3.188.91a12.418,12.418,0,0,1-2.136-.14c-.175-.071-.245-.141-.245-.385Zm0,11.1c0-.175.07-.245.211-.245.525,0,2.276,0,2.732.07a5.79,5.79,0,0,1,2.907,1.016,8.39,8.39,0,0,1,3.4,7.005A4.673,4.673,0,0,1,515.423,381a8.234,8.234,0,0,1-3.082-.526c-1.085-.525-1.085-1.016-1.191-2.732-.035-.525-.035-4.869-.035-7.566Z" transform="translate(-505.265 -350.067)" fill="#d8d8d8" fill-rule="evenodd"/>
        <path id="Path_47" data-name="Path 47" d="M561.56,371.513c0,3.362,0,6.13-.176,7.6-.139,1.016-.315,1.786-1.015,1.926a5.431,5.431,0,0,1-1.051.14c-.21,0-.28.105-.28.211,0,.21.175.28.561.28,1.051,0,3.257-.105,3.433-.105,1.016,0,3.363.21,8.652.21,1.366,0,1.646,0,1.891-.91a34.226,34.226,0,0,0,.455-3.4c0-.245,0-.525-.21-.525-.175,0-.245.14-.315.525-.245,1.436-.666,2.137-1.576,2.522a10.039,10.039,0,0,1-3.362.385c-3.433,0-3.958-.455-4.063-2.872-.035-.736,0-4.8,0-5.99v-3.082a.221.221,0,0,1,.245-.245c.6,0,4.063.07,5.009.175,1.366.14,1.681.736,1.821,1.226a3.574,3.574,0,0,1,.14,1.156c0,.175.07.315.245.315.245,0,.245-.385.245-.666,0-.245.07-1.541.14-2.242.105-1.156.28-1.751.28-1.961s-.07-.28-.175-.28c-.14,0-.28.175-.526.455-.315.35-.8.421-1.646.49-.805.07-5.114.07-5.569.07-.175,0-.21-.105-.21-.351v-9.667c0-.245.07-.351.21-.351.386,0,4.2.035,4.8.105,1.892.21,2.242.63,2.487,1.191a3.756,3.756,0,0,1,.21,1.261c0,.28.07.455.28.455.14,0,.21-.21.245-.385.07-.42.14-1.961.175-2.312.1-.981.28-1.4.28-1.646,0-.175-.035-.315-.14-.315-.176,0-.315.14-.491.175a9.346,9.346,0,0,1-1.506.175c-.805.035-7.775.035-8.021.035-.175,0-2.382-.105-3.958-.105-.385,0-.56.07-.56.28,0,.14.14.21.28.21a6.543,6.543,0,0,1,1.191.105c1.155.245,1.436.806,1.506,2,.07,1.121.07,2.1.07,7.566Z" transform="translate(-534.451 -349.727)" fill="#d8d8d8" fill-rule="evenodd"/>
        <path id="Path_48" data-name="Path 48" d="M611.783,365.689c0-5.464,0-6.445.07-7.566.07-1.226.351-1.821,1.366-2a8.228,8.228,0,0,1,1.156-.1c.14,0,.28-.07.28-.21,0-.21-.175-.281-.561-.281-1.05,0-3.607.105-3.783.105s-2.381-.105-3.957-.105c-.385,0-.561.071-.561.281,0,.14.14.21.28.21a6.567,6.567,0,0,1,1.192.1c1.156.245,1.436.806,1.506,2,.07,1.121.07,2.1.07,7.566v6.164c0,3.363,0,6.13-.175,7.6-.14,1.016-.316,1.786-1.016,1.927a5.4,5.4,0,0,1-1.051.14c-.21,0-.28.105-.28.211,0,.21.175.28.561.28,1.05,0,3.117-.105,3.432-.105,2.032,0,4.344.21,9.387.21,1.856,0,1.962-.14,2.206-.946a22.312,22.312,0,0,0,.525-3.5c0-.385-.035-.525-.21-.525-.21,0-.28.175-.315.455a4.875,4.875,0,0,1-.91,2.1c-.841,1.016-2.382,1.05-4.238,1.05-2.732,0-3.643-.245-4.2-.806-.63-.63-.771-2.872-.771-8.021Z" transform="translate(-560.366 -350.067)" fill="#d8d8d8" fill-rule="evenodd"/>
        <path id="Path_49" data-name="Path 49" d="M654.728,371.513c0,3.362,0,6.13-.175,7.6-.14,1.016-.315,1.786-1.016,1.926a5.43,5.43,0,0,1-1.051.14c-.21,0-.28.105-.28.211,0,.21.176.28.561.28,1.051,0,3.257-.105,3.433-.105,1.015,0,3.363.21,8.652.21,1.366,0,1.646,0,1.891-.91a34.257,34.257,0,0,0,.455-3.4c0-.245,0-.525-.21-.525-.175,0-.245.14-.315.525-.245,1.436-.665,2.137-1.576,2.522a10.042,10.042,0,0,1-3.363.385c-3.432,0-3.958-.455-4.063-2.872-.035-.736,0-4.8,0-5.99v-3.082a.221.221,0,0,1,.245-.245c.6,0,4.063.07,5.009.175,1.366.14,1.681.736,1.821,1.226a3.579,3.579,0,0,1,.14,1.156c0,.175.07.315.246.315.245,0,.245-.385.245-.666,0-.245.071-1.541.14-2.242.105-1.156.281-1.751.281-1.961s-.07-.28-.175-.28c-.14,0-.28.175-.525.455-.315.35-.806.421-1.647.49-.805.07-5.113.07-5.569.07-.174,0-.21-.105-.21-.351v-9.667c0-.245.07-.351.21-.351.385,0,4.2.035,4.8.105,1.892.21,2.242.63,2.487,1.191a3.754,3.754,0,0,1,.21,1.261c0,.28.071.455.281.455.14,0,.21-.21.245-.385.07-.42.14-1.961.175-2.312.1-.981.28-1.4.28-1.646,0-.175-.035-.315-.14-.315-.175,0-.316.14-.49.175a9.358,9.358,0,0,1-1.506.175c-.806.035-7.776.035-8.021.035-.175,0-2.382-.105-3.958-.105-.385,0-.56.07-.56.28,0,.14.14.21.28.21a6.532,6.532,0,0,1,1.19.105c1.156.245,1.436.806,1.507,2,.07,1.121.07,2.1.07,7.566Z" transform="translate(-585.518 -349.727)" fill="#d8d8d8" fill-rule="evenodd"/>
        <path id="Path_50" data-name="Path 50" d="M702.009,371.847c0,3.363,0,6.13-.175,7.6-.14,1.016-.315,1.786-1.015,1.926a5.4,5.4,0,0,1-1.051.14c-.21,0-.281.105-.281.211,0,.209.176.28.561.28,1.051,0,3.258-.105,3.432-.105.35,0,4.764.42,7.776.42,5.955,0,9.107-2.452,10.613-4.028a14.316,14.316,0,0,0,3.783-9.877,12.512,12.512,0,0,0-3.4-8.9c-4.168-4.308-10.578-3.993-14.045-3.993-2.1,0-4.308.105-4.729.105-.175,0-2.381-.105-3.958-.105-.385,0-.56.071-.56.281,0,.14.141.21.28.21a6.574,6.574,0,0,1,1.191.1c1.156.246,1.436.806,1.506,2,.07,1.121.07,2.1.07,7.566Zm2.943-6.725c0-2.7,0-6.269.035-7.46a.635.635,0,0,1,.42-.7,9.355,9.355,0,0,1,2.277-.245c4.168,0,8.161.49,11.453,3.958A12.527,12.527,0,0,1,722.5,369.5c0,3.222-.981,6.585-2.8,8.371a11.756,11.756,0,0,1-8.336,3.257c-4.133,0-5.5-.736-5.955-1.4a7.644,7.644,0,0,1-.385-2.662c-.035-.666-.07-3.888-.07-7.6Z" transform="translate(-611.433 -350.061)" fill="#d8d8d8" fill-rule="evenodd"/>
        <path id="Path_51" data-name="Path 51" d="M776.558,359.062c0-5.464,0-6.445.07-7.566.07-1.226.351-1.821,1.3-2a5.2,5.2,0,0,1,.876-.1c.14,0,.28-.07.28-.21,0-.21-.175-.281-.56-.281-1.051,0-3.258.105-3.433.105s-2.382-.105-3.538-.105c-.385,0-.561.07-.561.281,0,.14.14.21.28.21a4.59,4.59,0,0,1,1.086.14c.771.175,1.12.771,1.191,1.961.07,1.121.07,2.1.07,7.566v6.164c0,3.363,0,6.13-.175,7.6-.14,1.016-.315,1.786-1.016,1.926a5.4,5.4,0,0,1-1.051.14c-.21,0-.28.105-.28.21,0,.21.174.28.56.28,1.051,0,3.257-.105,3.432-.105s2.382.105,4.308.105c.385,0,.56-.105.56-.28,0-.105-.07-.21-.28-.21a15.226,15.226,0,0,1-1.576-.14c-1.051-.14-1.261-.91-1.366-1.926-.175-1.471-.175-4.238-.175-7.6Zm-1.646-12.014a1.8,1.8,0,0,0,1.822-1.891,1.7,1.7,0,0,0-1.822-1.716,1.767,1.767,0,0,0-1.786,1.821A1.721,1.721,0,0,0,774.912,347.047Z" transform="translate(-650.912 -343.44)" fill="#d8d8d8" fill-rule="evenodd"/>
        <path id="Path_52" data-name="Path 52" d="M805.915,375.951c0,.56,0,2.032-.105,3.5-.07,1.016-.385,1.786-1.086,1.927a5.407,5.407,0,0,1-1.051.14c-.21,0-.28.105-.28.211,0,.21.175.28.56.28,1.05,0,3.257-.105,3.432-.105s2.382.105,4.308.105c.385,0,.561-.105.561-.28,0-.105-.07-.211-.28-.211a15.24,15.24,0,0,1-1.576-.14c-1.051-.14-1.366-.911-1.436-1.927-.105-1.471-.105-2.942-.105-3.5v-3.012a8.378,8.378,0,0,1,.526-3.5,111.541,111.541,0,0,1,6.69-11.138,6.669,6.669,0,0,1,1.856-1.786,3.334,3.334,0,0,1,1.611-.49c.281,0,.456-.105.456-.281,0-.14-.21-.21-.456-.21-.665,0-3.187.105-3.4.105-.28,0-1.4-.105-2.312-.105-.35,0-.561.071-.561.21,0,.175.21.245.525.351.421.105.561.49.561.981a3.416,3.416,0,0,1-.6,1.786c-.7,1.156-5.149,8.827-5.814,10.3-.631-1.016-5.885-10.052-6.445-11.068a2.991,2.991,0,0,1-.456-1.366.71.71,0,0,1,.456-.63c.315-.14.526-.175.526-.315s-.07-.245-.455-.245c-1.366,0-2.7.105-2.942.105-.175,0-2.8-.105-3.467-.105-.316,0-.456.105-.456.245,0,.175.175.245.35.245a3.349,3.349,0,0,1,1.506.56,9.813,9.813,0,0,1,2.382,2.592c1.226,1.821,5.919,9.527,6.165,10.088a7.433,7.433,0,0,1,.805,3.677Z" transform="translate(-663.912 -350.067)" fill="#d8d8d8" fill-rule="evenodd"/>
        <path id="Path_53" data-name="Path 53" d="M857.9,371.513c0,3.362,0,6.13-.175,7.6-.14,1.016-.315,1.786-1.016,1.926a5.425,5.425,0,0,1-1.051.14c-.21,0-.28.105-.28.211,0,.21.175.28.561.28,1.051,0,3.257-.105,3.432-.105,1.015,0,3.362.21,8.651.21,1.366,0,1.646,0,1.891-.91.175-.736.455-3.118.455-3.4,0-.245,0-.525-.21-.525-.175,0-.245.14-.315.525-.246,1.436-.666,2.137-1.576,2.522a10.044,10.044,0,0,1-3.363.385c-3.433,0-3.958-.455-4.063-2.872-.034-.736,0-4.8,0-5.99v-3.082a.221.221,0,0,1,.246-.245c.595,0,4.063.07,5.008.175,1.366.14,1.681.736,1.821,1.226a3.576,3.576,0,0,1,.14,1.156c0,.175.07.315.246.315.245,0,.245-.385.245-.666,0-.245.07-1.541.14-2.242.1-1.156.28-1.751.28-1.961s-.07-.28-.176-.28c-.14,0-.28.175-.525.455-.315.35-.806.421-1.647.49-.8.07-5.113.07-5.569.07-.175,0-.21-.105-.21-.351v-9.667c0-.245.07-.351.21-.351.386,0,4.2.035,4.8.105,1.892.21,2.242.63,2.487,1.191a3.764,3.764,0,0,1,.21,1.261c0,.28.07.455.28.455.14,0,.21-.21.245-.385.07-.42.141-1.961.175-2.312.1-.981.28-1.4.28-1.646,0-.175-.035-.315-.14-.315-.175,0-.315.14-.49.175a9.363,9.363,0,0,1-1.506.175c-.806.035-7.776.035-8.021.035-.175,0-2.382-.105-3.958-.105-.386,0-.56.07-.56.28,0,.14.14.21.28.21a6.529,6.529,0,0,1,1.19.105c1.156.245,1.436.806,1.506,2,.07,1.121.07,2.1.07,7.566Z" transform="translate(-696.882 -349.727)" fill="#d8d8d8" fill-rule="evenodd"/>
        <path id="Path_54" data-name="Path 54" d="M907.977,381.907a9.212,9.212,0,0,0,5.289-1.471,7.257,7.257,0,0,0,2.977-5.814c0-2.8-.981-4.974-5.114-8.231l-.981-.771c-3.363-2.627-4.273-3.888-4.273-5.884a3.982,3.982,0,0,1,4.308-4.063c3.223,0,4.168,1.471,4.379,1.856a6.139,6.139,0,0,1,.455,1.751c.036.28.07.455.28.455.175,0,.245-.245.245-.805,0-2.382.14-3.538.14-3.713s-.07-.245-.35-.245a5.733,5.733,0,0,1-1.226-.175,13.58,13.58,0,0,0-3.258-.35c-4.448,0-7.25,2.557-7.25,6.3,0,2.382.841,4.554,4.553,7.6l1.576,1.3c3.012,2.487,4.028,3.888,4.028,6.3a4.676,4.676,0,0,1-5.008,4.659c-2.347,0-4.659-.981-5.184-3.573a6.143,6.143,0,0,1-.105-1.3c0-.28-.035-.385-.245-.385-.175,0-.245.175-.28.56-.035.561-.175,1.962-.175,3.713,0,.946.035,1.086.525,1.331A10.633,10.633,0,0,0,907.977,381.907Z" transform="translate(-723.137 -349.473)" fill="#d8d8d8" fill-rule="evenodd"/>
        <path id="Path_55" data-name="Path 55" d="M952.817,359.062c0-5.464,0-6.445.07-7.566.07-1.226.35-1.821,1.3-2a5.212,5.212,0,0,1,.876-.1c.14,0,.28-.07.28-.21,0-.21-.175-.281-.56-.281-1.051,0-3.258.105-3.433.105s-2.382-.105-3.538-.105c-.385,0-.56.07-.56.281,0,.14.14.21.28.21a4.592,4.592,0,0,1,1.086.14c.77.175,1.12.771,1.19,1.961.07,1.121.07,2.1.07,7.566v6.164c0,3.363,0,6.13-.175,7.6-.14,1.016-.316,1.786-1.016,1.926a5.388,5.388,0,0,1-1.051.14c-.21,0-.28.105-.28.21,0,.21.175.28.561.28,1.05,0,3.257-.105,3.432-.105s2.382.105,4.308.105c.385,0,.561-.105.561-.28,0-.105-.071-.21-.281-.21a15.22,15.22,0,0,1-1.576-.14c-1.051-.14-1.261-.91-1.366-1.926-.175-1.471-.175-4.238-.175-7.6Zm-1.647-12.014a1.8,1.8,0,0,0,1.821-1.891,1.7,1.7,0,0,0-1.821-1.716,1.767,1.767,0,0,0-1.787,1.821A1.721,1.721,0,0,0,951.171,347.047Z" transform="translate(-747.522 -343.44)" fill="#d8d8d8" fill-rule="evenodd"/>
      </g>
    </g>
  </g>
</svg>
